PathFileType	4	(X/Y/Z) shrug_2kg_2.trc																										
DataRate	CameraRate	NumFrames	NumMarkers	Units	OrigDataRate	OrigDataStartFrame	OrigNumFrames																					
100	100	29	9	mm	100	1	480																					
Frame#	Time	gu			centelbow			EpL			centpxt8			centijc7			ij			ts			aa			ai		
		X1	Y1	Z1	X2	Y2	Z2	X3	Y3	Z3	X4	Y4	Z4	X5	Y5	Z5	X6	Y6	Z6	X7	Y7	Z7	X8	Y8	Z8	X9	Y9	Z9  
0	0	-83.34	-16.317	164.167	-113.365	-260.877	180.699	-97.934	-256.845	208.718	-46.816	-153.158	-8.669	-46.816	31.938	-8.669	0	0	0	-136.689	28.104	50.133	-109.68	19.363	165.973	-159.087	-83.157	52.326
1	0.01	-83.396	-16.426	164.26	-113.55	-260.967	180.842	-98.128	-256.935	208.866	-46.816	-153.158	-8.669	-46.816	31.938	-8.669	0	0	0	-136.664	28.084	50.054	-109.68	19.34	165.9	-159.089	-83.172	52.246
2	0.02	-83.405	-16.599	164.461	-113.721	-261.116	181.089	-98.313	-257.088	209.121	-46.816	-153.158	-8.669	-46.816	31.938	-8.669	0	0	0	-136.567	28.082	49.967	-109.602	19.335	165.817	-159.02	-83.168	52.159
3	0.03	-83.452	-16.84	164.471	-113.927	-261.335	181.132	-98.522	-257.311	209.166	-46.816	-153.158	-8.669	-46.816	31.938	-8.669	0	0	0	-136.525	28.043	49.875	-109.581	19.306	165.731	-158.995	-83.204	52.078
4	0.04	-83.533	-17.005	164.28	-114.097	-261.487	180.972	-98.688	-257.466	209.004	-46.816	-153.158	-8.669	-46.816	31.938	-8.669	0	0	0	-136.63	27.935	49.86	-109.714	19.212	165.724	-159.105	-83.311	52.072
5	0.05	-83.543	-17.042	164.222	-114.147	-261.517	180.946	-98.74	-257.494	208.98	-46.816	-153.158	-8.669	-46.816	31.938	-8.669	0	0	0	-136.789	27.799	49.982	-109.918	19.074	165.855	-159.279	-83.444	52.186
6	0.06	-83.475	-17.005	164.401	-114.123	-261.473	181.153	-98.729	-257.448	209.193	-46.816	-153.158	-8.669	-46.816	31.938	-8.669	0	0	0	-136.832	27.724	50.112	-110.002	18.98	165.994	-159.359	-83.511	52.299
7	0.07	-83.428	-16.934	164.572	-114.134	-261.393	181.336	-98.746	-257.369	209.379	-46.816	-153.158	-8.669	-46.816	31.938	-8.669	0	0	0	-136.711	27.73	50.089	-109.897	18.969	165.973	-159.286	-83.496	52.268
8	0.08	-83.481	-16.866	164.491	-114.218	-261.322	181.248	-98.819	-257.302	209.286	-46.816	-153.158	-8.669	-46.816	31.938	-8.669	0	0	0	-136.553	27.75	49.929	-109.729	18.985	165.81	-159.162	-83.469	52.114
9	0.09	-83.571	-16.859	164.209	-114.283	-261.319	180.95	-98.864	-257.303	208.978	-46.816	-153.158	-8.669	-46.816	31.938	-8.669	0	0	0	-136.461	27.737	49.753	-109.613	18.975	165.629	-159.077	-83.481	51.948
10	0.1	-83.561	-16.997	163.99	-114.242	-261.462	180.713	-98.813	-257.448	208.735	-46.816	-153.158	-8.669	-46.816	31.938	-8.669	0	0	0	-136.418	27.74	49.616	-109.549	18.983	165.488	-159.026	-83.479	51.819
11	0.11	-83.506	-17.327	163.964	-114.233	-261.788	180.666	-98.802	-257.779	208.688	-46.816	-153.158	-8.669	-46.816	31.938	-8.669	0	0	0	-136.476	27.827	49.515	-109.596	19.072	165.384	-159.072	-83.394	51.718
12	0.12	-83.584	-17.68	164.056	-114.395	-262.132	180.741	-98.965	-258.13	208.765	-46.816	-153.158	-8.669	-46.816	31.938	-8.669	0	0	0	-136.709	27.954	49.485	-109.834	19.189	165.355	-159.293	-83.27	51.675
13	0.13	-83.725	-17.807	164.124	-114.557	-262.256	180.809	-99.126	-258.255	208.833	-46.816	-153.158	-8.669	-46.816	31.938	-8.669	0	0	0	-136.97	28.042	49.578	-110.114	19.265	165.451	-159.539	-83.185	51.748
14	0.14	-83.7	-17.722	164.021	-114.497	-262.175	180.717	-99.06	-258.172	208.737	-46.816	-153.158	-8.669	-46.816	31.938	-8.669	0	0	0	-137.036	28.101	49.733	-110.202	19.314	165.611	-159.592	-83.13	51.888
15	0.15	-83.553	-17.571	163.78	-114.312	-262.028	180.482	-98.867	-258.023	208.497	-46.816	-153.158	-8.669	-46.816	31.938	-8.669	0	0	0	-136.951	28.181	49.824	-110.129	19.39	165.704	-159.496	-83.051	51.968
16	0.16	-83.536	-17.399	163.659	-114.26	-261.861	180.354	-98.814	-257.855	208.368	-46.816	-153.158	-8.669	-46.816	31.938	-8.669	0	0	0	-136.898	28.284	49.857	-110.088	19.489	165.739	-159.434	-82.951	51.993
17	0.17	-83.698	-17.3	163.73	-114.393	-261.766	180.418	-98.952	-257.758	208.435	-46.816	-153.158	-8.669	-46.816	31.938	-8.669	0	0	0	-136.866	28.291	49.929	-110.082	19.493	165.816	-159.412	-82.942	52.059
18	0.18	-83.867	-17.367	163.767	-114.564	-261.832	180.454	-99.126	-257.825	208.473	-46.816	-153.158	-8.669	-46.816	31.938	-8.669	0	0	0	-136.8	28.126	50.013	-110.045	19.316	165.907	-159.381	-83.1	52.135
19	0.19	-83.963	-17.454	163.688	-114.692	-261.916	180.374	-99.253	-257.91	208.393	-46.816	-153.158	-8.669	-46.816	31.938	-8.669	0	0	0	-136.82	27.946	49.998	-110.074	19.117	165.893	-159.434	-83.274	52.109
20	0.2	-84.023	-17.414	163.646	-114.788	-261.871	180.324	-99.349	-257.869	208.343	-46.816	-153.158	-8.669	-46.816	31.938	-8.669	0	0	0	-136.988	27.933	49.863	-110.232	19.088	165.754	-159.61	-83.285	51.961
21	0.21	-84.061	-17.304	163.629	-114.834	-261.761	180.301	-99.395	-257.76	208.32	-46.816	-153.158	-8.669	-46.816	31.938	-8.669	0	0	0	-137.175	28.031	49.693	-110.415	19.176	165.582	-159.795	-83.188	51.783
22	0.22	-84.1	-17.095	163.518	-114.799	-261.561	180.199	-99.354	-257.556	208.214	-46.816	-153.158	-8.669	-46.816	31.938	-8.669	0	0	0	-137.268	28.118	49.593	-110.521	19.268	165.486	-159.888	-83.101	51.685
23	0.23	-84.147	-16.679	163.393	-114.677	-261.165	180.098	-99.228	-257.146	208.109	-46.816	-153.158	-8.669	-46.816	31.938	-8.669	0	0	0	-137.224	28.182	49.589	-110.496	19.346	165.487	-159.848	-83.036	51.691
24	0.24	-84.156	-16.187	163.397	-114.526	-260.69	180.131	-99.08	-256.659	208.141	-46.816	-153.158	-8.669	-46.816	31.938	-8.669	0	0	0	-137.057	28.209	49.613	-110.343	19.385	165.515	-159.697	-83.005	51.728
25	0.25	-84.129	-15.837	163.508	-114.448	-260.346	180.262	-99.009	-256.308	208.275	-46.816	-153.158	-8.669	-46.816	31.938	-8.669	0	0	0	-136.864	28.172	49.642	-110.179	19.351	165.551	-159.54	-83.034	51.761
26	0.26	-84.112	-15.638	163.592	-114.456	-260.143	180.353	-99.026	-256.104	208.371	-46.816	-153.158	-8.669	-46.816	31.938	-8.669	0	0	0	-136.758	28.164	49.712	-110.124	19.34	165.633	-159.464	-83.037	51.827
27	0.27	-84.122	-15.566	163.546	-114.503	-260.066	180.32	-99.073	-256.027	208.339	-46.816	-153.158	-8.669	-46.816	31.938	-8.669	0	0	0	-136.769	28.266	49.787	-110.178	19.447	165.718	-159.48	-82.934	51.899
28	0.28	-84.188	-15.717	163.384	-114.62	-260.207	180.194	-99.183	-256.169	208.209	-46.816	-153.158	-8.669	-46.816	31.938	-8.669	0	0	0	-136.858	28.366	49.744	-110.276	19.555	165.677	-159.566	-82.835	51.861
